<svg width="28" height="28" viewBox="0 0 28 28" fill="none" xmlns="http://www.w3.org/2000/svg">
<g clip-path="url(#clip0_6143_26929)">
<path d="M18.6065 4.29827L19.8945 8.16693H22.166C22.6727 8.16691 23.1734 8.2769 23.6334 8.48933C24.0935 8.70175 24.5019 9.01153 24.8305 9.39725C25.1591 9.78298 25.4 10.2355 25.5366 10.7234C25.6732 11.2114 25.7022 11.7232 25.6217 12.2234L24.161 20.5429C23.9915 21.6448 23.4332 22.6496 22.587 23.3755C21.7409 24.1014 20.6628 24.5004 19.548 24.5003H8.45065C7.33983 24.5016 6.26506 24.1061 5.4201 23.385C4.57514 22.6639 4.01559 21.6647 3.84232 20.5674L2.37465 12.1989C2.29797 11.7003 2.32999 11.191 2.46852 10.7059C2.60704 10.2208 2.84881 9.77135 3.17724 9.3884C3.50567 9.00546 3.913 8.69804 4.37134 8.48721C4.82967 8.27638 5.32816 8.16713 5.83265 8.16693H8.10182L9.39099 4.29827C9.4394 4.15287 9.51598 4.01844 9.61635 3.90264C9.71672 3.78684 9.83891 3.69194 9.97596 3.62336C10.2527 3.48487 10.5732 3.46199 10.8668 3.55977C11.0122 3.60818 11.1467 3.68476 11.2625 3.78513C11.3783 3.8855 11.4732 4.00769 11.5417 4.14474C11.6103 4.28178 11.6512 4.43099 11.6621 4.58384C11.673 4.7367 11.6537 4.89021 11.6053 5.0356L10.5612 8.16693H17.4363L16.3922 5.0356C16.2944 4.74196 16.3173 4.42151 16.4557 4.14474C16.5942 3.86796 16.837 3.65754 17.1307 3.55977C17.4243 3.46199 17.7447 3.48487 18.0215 3.62336C18.2983 3.76186 18.5087 4.00463 18.6065 4.29827ZM13.9993 12.8336C13.1066 12.8336 12.2476 13.1746 11.598 13.7871C10.9485 14.3996 10.5575 15.2371 10.5052 16.1283L10.4993 16.3336C10.4993 17.0258 10.7046 17.7025 11.0892 18.2781C11.4738 18.8537 12.0204 19.3023 12.6599 19.5672C13.2995 19.8321 14.0032 19.9014 14.6821 19.7663C15.3611 19.6313 15.9847 19.298 16.4742 18.8085C16.9637 18.319 17.297 17.6954 17.4321 17.0164C17.5671 16.3375 17.4978 15.6338 17.2329 14.9942C16.968 14.3547 16.5194 13.808 15.9438 13.4235C15.3682 13.0389 14.6916 12.8336 13.9993 12.8336Z" fill="white"/>
</g>
<defs>
<clipPath id="clip0_6143_26929">
<rect width="28" height="28" fill="white"/>
</clipPath>
</defs>
</svg>
