<?xml version="1.0" encoding="UTF-8"?>
<svg id="Layer_1" xmlns="http://www.w3.org/2000/svg" version="1.1" viewBox="0 0 321.28 76.2">
  <!-- Generator: Adobe Illustrator 29.0.1, SVG Export Plug-In . SVG Version: 2.1.0 Build 192)  -->
  <defs>
    <style>
      .st0 {
        fill: #fcc200;
      }

      .st1 {
        fill: #3b3c40;
      }
    </style>
  </defs>
  <g>
    <path class="st1" d="M9.99,42.56c.15-2.77.29-6.13.29-10.06v-13.9c0-3.94-.14-7.29-.29-10.06,4.77.15,10.99-.1,13.37-.1,11.38,0,18.14,7.05,18.14,16.34s-6.42,17.89-18.18,17.89c-2.29,0-8.56-.24-13.32-.1ZM23.02,39.79c8.51,0,11.38-3.89,11.38-11.57,0-9.77-4.86-16.92-14.2-16.92-1.56,0-2.77.49-2.77,2.29v23.19c0,2.04,2.33,3.01,5.59,3.01Z"/>
    <path class="st1" d="M44.96,32.5v-13.9c0-3.94-.14-7.29-.29-10.06,4.77.15,7.73-.1,12.69-.1,8.02,0,12.59,3.21,12.59,8.99,0,5.2-3.89,8.02-8.85,8.46,1.7.97,3.65,3.11,5.4,5.11l4.91,5.64c2.43,2.77,3.84,4.38,5.4,5.93h-8.51l-8.99-11.28c-3.06-3.84-4.28-4.23-7.2-4.28v5.49c0,3.94.24,7.29.34,10.06h-7.78c.15-2.77.29-6.13.29-10.06ZM53.32,24.53c7.15,0,9.19-1.22,9.19-5.69,0-5.1-2.96-7.54-7.19-7.54-2.63,0-3.21.49-3.21,2.77v10.45h1.22Z"/>
    <path class="st1" d="M92.76,42.42c-3.21,0-8.31,0-13.08.15.14-2.77.29-6.13.29-10.06v-13.9c0-3.94-.15-7.29-.29-10.06,4.76.15,9.82.15,12.79.15,2.04,0,5.74,0,9.63-.24.49-.05.58.1.49.53l-.68,2.87c-.05.24-.2.29-.73.24-4.52-.39-7.73-.63-11.43-.63-1.65,0-2.43.53-2.48,1.85-.1,2.09-.15,3.94-.15,5.88v3.11c0,1.26.63,1.51,1.6,1.51h.88c3.84,0,6.27-.05,8.99-.39.39-.05.58.19.39.63l-.97,2.63c-.14.53-.44.53-1.07.49-1.85-.15-5.2-.34-7.78-.34h-.44c-.97,0-1.6.24-1.6,1.51v3.6c0,1.94,0,3.74.15,5.83.1,1.31.83,1.85,2.48,1.85,3.94,0,7.93-.39,12.45-.78.54-.05.78,0,.73.24l-.58,3.06c-.1.44-.1.58-.49.54-3.89-.24-6.32-.24-9.09-.24Z"/>
    <path class="st1" d="M107.75,35.32l8.07-18.57c1.41-3.26,2.28-5.93,2.48-7.73.05-.44,3.45-1.02,3.6-.68l11.57,27.08c1.07,2.43,2.09,4.72,3.31,7.15h-7.58l-3.26-7.24c-.58-1.36-.97-1.41-2.28-1.41h-9.53c-1.46,0-1.99,0-2.48,1.41l-2.53,7.24h-4.67c1.12-2.43,2.28-4.81,3.31-7.24ZM114.94,30.8h7.78c.63,0,1.26-.15.97-.83l-4.86-11.72-4.86,11.72c-.29.68.34.83.97.83Z"/>
    <path class="st1" d="M139.66,28.27l1.17-19.54c.05-.97,1.89-1.07,2.53,0l14.39,25.72,13.22-25.72c.54-1.07,2.58-.97,2.63-.05l1.26,19.59c.24,4.77.58,9.53,1.02,14.29h-7.54c-.19-4.77-.39-9.53-.68-14.29l-.39-5.88-7.24,14.39c-.97,1.85-1.55,3.84-1.75,4.47-.24.63-1.36.73-2.43.73s-1.36-.15-1.65-.73l-10.75-19.55-.24,6.56c-.19,4.77-.34,9.53-.49,14.29h-4.23c.44-4.77.88-9.53,1.17-14.29Z"/>
    <path class="st1" d="M188.75,32.5V13.54c0-1.07-.39-1.6-1.26-1.6-2.72,0-6.47.1-10.41.44-.53.05-.78-.05-.68-.39l.73-3.01c.05-.34.14-.58.63-.53,3.16.1,4.62.1,12.59.1h4.91c7.83,0,9.43,0,12.59-.1.49-.05.58.1.49.53l-.54,3.11c-.05.24-.2.34-.73.29-3.94-.34-7.34-.44-9.92-.44-.88,0-1.26.54-1.26,1.6v18.96c0,3.94.34,7.29.44,10.06h-7.97c.14-2.77.39-6.13.39-10.06Z"/>
    <path class="st1" d="M224.15,42.42c-3.21,0-8.31,0-13.08.15.14-2.77.29-6.13.29-10.06v-13.9c0-3.94-.15-7.29-.29-10.06,4.76.15,9.82.15,12.79.15,2.04,0,5.74,0,9.63-.24.49-.05.58.1.49.53l-.68,2.87c-.05.24-.2.29-.73.24-4.52-.39-7.73-.63-11.43-.63-1.65,0-2.43.53-2.48,1.85-.1,2.09-.15,3.94-.15,5.88v3.11c0,1.26.63,1.51,1.6,1.51h.88c3.84,0,6.27-.05,8.99-.39.39-.05.58.19.39.63l-.97,2.63c-.14.53-.44.53-1.07.49-1.85-.15-5.2-.34-7.78-.34h-.44c-.97,0-1.6.24-1.6,1.51v3.6c0,1.94,0,3.74.15,5.83.1,1.31.83,1.85,2.48,1.85,3.94,0,7.93-.39,12.45-.78.54-.05.78,0,.73.24l-.58,3.06c-.1.44-.1.58-.49.54-3.89-.24-6.32-.24-9.09-.24Z"/>
    <path class="st1" d="M238.85,35.32l8.07-18.57c1.41-3.26,2.28-5.93,2.48-7.73.05-.44,3.45-1.02,3.6-.68l11.57,27.08c1.07,2.43,2.09,4.72,3.3,7.15h-7.58l-3.26-7.24c-.58-1.36-.97-1.41-2.28-1.41h-9.53c-1.46,0-1.99,0-2.48,1.41l-2.53,7.24h-4.67c1.12-2.43,2.28-4.81,3.3-7.24ZM246.04,30.8h7.78c.63,0,1.26-.15.97-.83l-4.86-11.72-4.86,11.72c-.29.68.34.83.97.83Z"/>
    <path class="st1" d="M272.7,28.27l1.17-19.54c.05-.97,1.89-1.07,2.53,0l14.39,25.72,13.22-25.72c.54-1.07,2.58-.97,2.63-.05l1.26,19.59c.24,4.77.58,9.53,1.02,14.29h-7.54c-.19-4.77-.39-9.53-.68-14.29l-.39-5.88-7.24,14.39c-.97,1.85-1.55,3.84-1.75,4.47-.24.63-1.36.73-2.43.73s-1.36-.15-1.65-.73l-10.75-19.55-.24,6.56c-.19,4.77-.34,9.53-.49,14.29h-4.23c.44-4.77.88-9.53,1.17-14.29Z"/>
  </g>
  <g>
    <path class="st0" d="M9.99,59.2c0-5.1,3.71-10.8,11.23-10.8,3.27,0,5.96,1.07,5.79,1.65l-.52,1.59c-.58,1.74-.75-1.45-6.92-1.45-4.37,0-7.12,2.78-7.12,7.53,0,6.4,4.89,9.73,9.76,9.73.46,0,2.46-.41,4.72-1.79.23-.15.67.32.49.58-1.25,1.79-4.92,3.36-5.62,3.36-6.86,0-11.81-4.34-11.81-10.39Z"/>
    <path class="st0" d="M28.17,59.09c0-5.79,4.05-10.68,10.31-10.68s10.39,4.57,10.39,10.48-4.03,10.71-10.31,10.71-10.39-4.57-10.39-10.51ZM39.38,68.12c2.98,0,7.27-1.77,7.27-7.87s-4.37-10.36-8.97-10.36c-3.01,0-7.24,1.77-7.24,7.85s4.31,10.39,8.94,10.39Z"/>
    <path class="st0" d="M51.51,60.07v-2.08c0-4.08-.06-6.43-.32-8.74-.03-.26.03-.38.26-.38h.67c.29,0,.49.03.7.26l14.04,15.86v-7.06c0-3.01-.03-5.47-.17-9.06h1.85c-.15,3.59-.17,6.05-.17,9.06v2.08c0,4.08.06,6.43.32,8.74.03.26-.03.38-.26.38h-.67c-.29,0-.49-.03-.7-.26l-14.04-15.86v7.06c0,3.01.03,5.47.18,9.06h-1.85c.14-3.59.17-6.05.17-9.06Z"/>
    <path class="st0" d="M71,59.2c0-5.1,3.71-10.8,11.23-10.8,3.27,0,5.96,1.07,5.79,1.65l-.52,1.59c-.58,1.74-.75-1.45-6.92-1.45-4.37,0-7.12,2.78-7.12,7.53,0,6.4,4.89,9.73,9.76,9.73.46,0,2.46-.41,4.72-1.79.23-.15.67.32.49.58-1.25,1.79-4.92,3.36-5.62,3.36-6.86,0-11.81-4.34-11.81-10.39Z"/>
    <path class="st0" d="M90.69,63.14v-8.28c0-2.34-.12-4.34-.2-5.99h2.72c-.09,1.65-.2,3.65-.2,5.99v8.28c0,2.35.12,4.34.2,5.99h-2.72c.09-1.65.2-3.65.2-5.99Z"/>
    <path class="st0" d="M102.68,69.05c-1.91,0-3.65,0-5.85.09.09-1.65.17-3.65.17-5.99v-8.28c0-2.34-.09-4.34-.17-5.99,2.2.09,3.91.09,5.67.09,2.23,0,4.05,0,6.37-.14.29-.03.35.06.29.32l-.35,1.33c-.03.15-.12.17-.43.15-2.69-.23-5.3-.38-7.5-.38-.99,0-1.45.32-1.48,1.1-.06,1.25-.09,2.35-.09,3.5v2.49c0,.75.38.9.96.9h.52c2.78,0,4.11-.03,5.73-.23.23-.03.35.12.23.38l-.46,1.04c-.15.32-.26.32-.64.29-1.1-.09-3.1-.2-5.12-.2h-.26c-.58,0-.96.15-.96.9v2.78c0,1.16,0,2.23.09,3.47.06.78.49,1.1,1.48,1.1,2.34,0,5.36-.17,8.05-.41.32-.03.46,0,.43.14l-.35,1.39c-.06.26-.06.35-.29.32-2.32-.15-4.14-.15-6.05-.15Z"/>
    <path class="st0" d="M111.86,63.14v-8.28c0-2.34-.09-4.34-.18-5.99,2.2.09,3.24-.06,5.67-.06,3.79,0,6.98,1.65,6.98,5.35,0,3.45-2.78,5.1-4.95,5.36.75.58,1.71,1.68,2.69,2.87l2.92,3.47c1.3,1.59,2.03,2.4,2.87,3.27h-3.21l-5.18-6.57c-1.85-2.35-2.69-2.55-5.3-2.55v3.13c0,2.35.15,4.34.2,5.99h-2.69c.09-1.65.18-3.65.18-5.99ZM115.19,58.91c4.4,0,6.69-.81,6.69-4.05s-2.29-4.86-5.15-4.86c-1.82,0-2.55.49-2.55,1.82v7.09h1.01Z"/>
    <path class="st0" d="M127.01,59.52c0-5.82,3.94-11.12,11.72-11.12,3.47,0,5.82,1.07,5.64,1.65l-.52,1.59c-.58,1.74-.61-1.45-6.31-1.45s-8.08,2.98-8.08,7.84c0,7.27,5.44,10.07,9.29,10.07,2.06,0,3.5-1.04,3.5-3.1,0-2.55-.09-3.47-.26-4.75h2.87c-.26,2.66-.35,4.95.03,7.18-1.65.87-4.49,2.14-5.24,2.14-7.01,0-12.65-3.18-12.65-10.07Z"/>
    <path class="st0" d="M153.64,69.05c-1.91,0-3.65,0-5.85.09.09-1.65.17-3.65.17-5.99v-8.28c0-2.34-.09-4.34-.17-5.99,2.2.09,3.91.09,5.67.09,2.23,0,4.05,0,6.37-.14.29-.03.35.06.29.32l-.35,1.33c-.03.15-.12.17-.43.15-2.69-.23-5.3-.38-7.5-.38-.99,0-1.45.32-1.48,1.1-.06,1.25-.09,2.35-.09,3.5v2.49c0,.75.38.9.96.9h.52c2.78,0,4.11-.03,5.73-.23.23-.03.35.12.23.38l-.46,1.04c-.15.32-.26.32-.64.29-1.1-.09-3.1-.2-5.12-.2h-.26c-.58,0-.96.15-.96.9v2.78c0,1.16,0,2.23.09,3.47.06.78.49,1.1,1.48,1.1,2.34,0,5.36-.17,8.05-.41.32-.03.46,0,.43.14l-.35,1.39c-.06.26-.06.35-.29.32-2.32-.15-4.14-.15-6.05-.15Z"/>
  </g>
</svg>