<svg xmlns="http://www.w3.org/2000/svg" viewBox="0 0 351.43 61.64"><defs><style>.cls-1{fill:#292a2e;}.cls-2{fill:#bbb1a0;}</style></defs><g id="Layer_2" data-name="Layer 2"><g id="Layer_1-2" data-name="Layer 1"><path class="cls-1" d="M0,34.61c.15-2.77.29-6.12.29-10.06V10.64C.29,6.7.15,3.35,0,.58c4.77.14,11-.1,13.37-.1,11.38,0,18.14,7.05,18.14,16.34,0,9-6.42,17.89-18.19,17.89C11,34.71,4.77,34.46,0,34.61Zm13-2.77c8.51,0,11.38-3.89,11.38-11.57,0-9.77-4.86-16.92-14.2-16.92-1.56,0-2.77.48-2.77,2.28v23.2C7.44,30.87,9.77,31.84,13,31.84Z"/><path class="cls-1" d="M35,24.55V10.64c0-3.94-.15-7.29-.29-10.06,4.76.14,7.73-.1,12.69-.1,8,0,12.59,3.21,12.59,9,0,5.21-3.89,8-8.85,8.46,1.7,1,3.65,3.12,5.4,5.11l4.91,5.64c2.43,2.77,3.84,4.38,5.39,5.93h-8.5l-9-11.28c-3.06-3.84-4.28-4.23-7.19-4.28v5.5c0,3.94.24,7.29.34,10.06H34.68C34.82,31.84,35,28.49,35,24.55Zm8.36-8c7.15,0,9.19-1.21,9.19-5.69,0-5.1-3-7.53-7.19-7.53-2.63,0-3.21.48-3.21,2.77V16.57Z"/><path class="cls-1" d="M82.77,34.46c-3.21,0-8.31,0-13.08.15.15-2.77.29-6.12.29-10.06V10.64c0-3.94-.14-7.29-.29-10.06,4.77.14,9.82.14,12.79.14,2,0,5.74,0,9.62-.24.49,0,.59.1.49.53l-.68,2.87c0,.25-.19.29-.73.25-4.52-.39-7.73-.64-11.43-.64-1.65,0-2.43.54-2.47,1.85-.1,2.09-.15,3.94-.15,5.89v3.11c0,1.26.63,1.5,1.6,1.5h.88a69.22,69.22,0,0,0,9-.38c.39-.05.59.19.39.63l-1,2.62c-.14.54-.44.54-1.07.49-1.85-.15-5.2-.34-7.78-.34h-.44c-1,0-1.6.24-1.6,1.5V24c0,1.95,0,3.75.15,5.84.09,1.31.82,1.85,2.47,1.85,3.94,0,7.93-.39,12.45-.78.54-.05.78,0,.73.24l-.58,3.06c-.1.44-.1.59-.49.54C88,34.46,85.54,34.46,82.77,34.46Z"/><path class="cls-1" d="M97.76,27.37l8.07-18.58a30.31,30.31,0,0,0,2.48-7.73c0-.43,3.45-1,3.6-.68l11.57,27.08c1.07,2.44,2.09,4.72,3.3,7.15H119.2l-3.26-7.24C115.36,26,115,26,113.66,26h-9.53c-1.46,0-2,0-2.48,1.41l-2.53,7.24H94.45C95.57,32.18,96.74,29.8,97.76,27.37ZM105,22.84h7.78c.63,0,1.27-.14,1-.82L108.84,10.3,104,22C103.69,22.7,104.32,22.84,105,22.84Z"/><path class="cls-1" d="M129.67,20.32,130.84.77c0-1,1.89-1.07,2.53,0l14.39,25.72L161,.77c.54-1.07,2.58-1,2.63-.05l1.26,19.6q.38,7.14,1,14.29h-7.53c-.2-4.76-.39-9.53-.68-14.29l-.39-5.89L150,28.83a26.55,26.55,0,0,0-1.75,4.47c-.24.63-1.36.73-2.43.73s-1.36-.15-1.65-.73L133.46,13.75l-.24,6.57c-.19,4.76-.34,9.53-.49,14.29H128.5C128.94,29.85,129.38,25.08,129.67,20.32Z"/><path class="cls-1" d="M178.76,24.55v-19c0-1.06-.39-1.6-1.26-1.6-2.73,0-6.47.1-10.41.44-.53,0-.78,0-.68-.39l.73-3c.05-.34.15-.58.63-.53,3.16.1,4.62.1,12.6.1h4.91c7.82,0,9.43,0,12.59-.1.48,0,.58.1.48.53l-.53,3.12c0,.24-.2.34-.73.29-3.94-.34-7.34-.44-9.92-.44-.87,0-1.26.54-1.26,1.6v19c0,3.94.34,7.29.44,10.06h-8C178.52,31.84,178.76,28.49,178.76,24.55Z"/><path class="cls-1" d="M214.17,34.46c-3.21,0-8.32,0-13.08.15.14-2.77.29-6.12.29-10.06V10.64c0-3.94-.15-7.29-.29-10.06,4.76.14,9.82.14,12.78.14,2,0,5.74,0,9.63-.24.49,0,.58.1.49.53l-.68,2.87c-.05.25-.2.29-.73.25-4.53-.39-7.73-.64-11.43-.64-1.65,0-2.43.54-2.48,1.85-.1,2.09-.14,3.94-.14,5.89v3.11c0,1.26.63,1.5,1.6,1.5H211a69.22,69.22,0,0,0,9-.38c.39-.05.58.19.39.63l-1,2.62c-.15.54-.44.54-1.07.49-1.85-.15-5.21-.34-7.78-.34h-.44c-1,0-1.6.24-1.6,1.5V24c0,1.95,0,3.75.14,5.84.1,1.31.83,1.85,2.48,1.85,3.94,0,7.93-.39,12.45-.78.53-.05.78,0,.73.24l-.59,3.06c-.09.44-.09.59-.48.54C219.37,34.46,216.94,34.46,214.17,34.46Z"/><path class="cls-1" d="M228.86,27.37l8.07-18.58a30.31,30.31,0,0,0,2.48-7.73c.05-.43,3.45-1,3.6-.68l11.57,27.08c1.07,2.44,2.09,4.72,3.3,7.15H250.3L247,27.37c-.58-1.36-1-1.41-2.28-1.41h-9.53c-1.46,0-2,0-2.48,1.41l-2.53,7.24h-4.67C226.67,32.18,227.84,29.8,228.86,27.37Zm7.19-4.53h7.78c.63,0,1.27-.14,1-.82L239.94,10.3,235.08,22C234.79,22.7,235.42,22.84,236.05,22.84Z"/><path class="cls-1" d="M262.71,20.32,263.88.77c0-1,1.89-1.07,2.52,0l14.39,25.72L294,.77c.53-1.07,2.58-1,2.62-.05l1.27,19.6q.36,7.14,1,14.29h-7.54c-.19-4.76-.39-9.53-.68-14.29l-.39-5.89-7.24,14.4a26.55,26.55,0,0,0-1.75,4.47c-.24.63-1.36.73-2.43.73s-1.36-.15-1.65-.73L266.5,13.75l-.24,6.57c-.2,4.76-.34,9.53-.49,14.29h-4.23C262,29.85,262.42,25.08,262.71,20.32Z"/><path class="cls-2" d="M201.09,51.25c0-5.09,3.7-10.8,11.23-10.8,3.27,0,6,1.07,5.79,1.65l-.52,1.6c-.58,1.73-.76-1.45-6.92-1.45-4.37,0-7.12,2.78-7.12,7.52,0,6.4,4.89,9.73,9.75,9.73A11.6,11.6,0,0,0,218,57.71c.23-.15.67.31.49.58-1.24,1.79-4.92,3.35-5.61,3.35C206,61.64,201.09,57.3,201.09,51.25Z"/><path class="cls-2" d="M219.27,51.13c0-5.78,4-10.68,10.31-10.68A10.15,10.15,0,0,1,240,50.93c0,5.82-4,10.71-10.31,10.71A10.16,10.16,0,0,1,219.27,51.13Zm11.2,9c3,0,7.27-1.77,7.27-7.88s-4.37-10.36-9-10.36c-3,0-7.24,1.77-7.24,7.84S225.84,60.17,230.47,60.17Z"/><path class="cls-2" d="M242.61,52.12V50a76.93,76.93,0,0,0-.32-8.74c0-.26,0-.37.26-.37h.67a.78.78,0,0,1,.69.26L258,57V50c0-3,0-5.47-.17-9.06h1.85c-.14,3.59-.17,6-.17,9.06v2.08a76.83,76.83,0,0,0,.32,8.74c0,.26,0,.38-.26.38h-.67a.78.78,0,0,1-.69-.26l-14-15.86v7.06c0,3,0,5.47.17,9.06h-1.85C242.58,57.59,242.61,55.13,242.61,52.12Z"/><path class="cls-2" d="M262.1,51.25c0-5.09,3.7-10.8,11.23-10.8,3.27,0,6,1.07,5.79,1.65l-.52,1.6c-.58,1.73-.75-1.45-6.92-1.45-4.37,0-7.12,2.78-7.12,7.52,0,6.4,4.89,9.73,9.76,9.73A11.58,11.58,0,0,0,279,57.71c.24-.15.67.31.5.58-1.25,1.79-4.92,3.35-5.62,3.35C267.05,61.64,262.1,57.3,262.1,51.25Z"/><path class="cls-2" d="M281.79,55.19V46.91c0-2.35-.12-4.34-.2-6h2.72c-.09,1.65-.2,3.64-.2,6v8.28c0,2.34.11,4.34.2,6h-2.72C281.67,59.53,281.79,57.53,281.79,55.19Z"/><path class="cls-2" d="M293.78,61.09c-1.91,0-3.65,0-5.85.09.09-1.65.17-3.65.17-6V46.91c0-2.35-.08-4.34-.17-6,2.2.08,3.91.08,5.67.08,2.23,0,4.06,0,6.37-.14.29,0,.35.06.29.32l-.35,1.33c0,.14-.11.17-.43.14-2.69-.23-5.3-.37-7.5-.37-1,0-1.45.32-1.48,1.1-.05,1.24-.08,2.34-.08,3.5v2.49c0,.75.37.9.95.9h.52a41.77,41.77,0,0,0,5.74-.24c.23,0,.34.12.23.38l-.46,1c-.15.32-.26.32-.64.29-1.1-.08-3.1-.2-5.13-.2h-.26c-.58,0-.95.14-.95.9v2.78c0,1.15,0,2.23.08,3.47.06.78.5,1.1,1.48,1.1,2.35,0,5.36-.17,8-.4.32,0,.46,0,.43.14l-.34,1.39c-.06.26-.06.35-.29.32C297.51,61.09,295.69,61.09,293.78,61.09Z"/><path class="cls-2" d="M303,55.19V46.91c0-2.35-.09-4.34-.18-6,2.2.08,3.25-.06,5.68-.06,3.79,0,7,1.65,7,5.35a5.39,5.39,0,0,1-4.95,5.36,20.85,20.85,0,0,1,2.7,2.86l2.92,3.48c1.3,1.59,2,2.4,2.87,3.27h-3.22l-5.18-6.57c-1.85-2.35-2.69-2.55-5.3-2.55v3.13c0,2.34.15,4.34.21,6h-2.7C302.87,59.53,303,57.53,303,55.19ZM306.29,51c4.4,0,6.68-.81,6.68-4.05s-2.28-4.86-5.15-4.86c-1.82,0-2.55.49-2.55,1.82V51Z"/><path class="cls-2" d="M318.1,51.57c0-5.82,3.94-11.12,11.73-11.12,3.47,0,5.82,1.07,5.64,1.65L335,43.7c-.58,1.73-.61-1.45-6.31-1.45-5.44,0-8.08,3-8.08,7.84,0,7.27,5.45,10.08,9.3,10.08,2.05,0,3.5-1.05,3.5-3.1a30.26,30.26,0,0,0-.26-4.75H336a27.26,27.26,0,0,0,0,7.18c-1.65.87-4.48,2.14-5.24,2.14C323.75,61.64,318.1,58.46,318.1,51.57Z"/><path class="cls-2" d="M344.74,61.09c-1.91,0-3.65,0-5.85.09.09-1.65.18-3.65.18-6V46.91c0-2.35-.09-4.34-.18-6,2.2.08,3.91.08,5.68.08,2.23,0,4.05,0,6.36-.14.29,0,.35.06.29.32l-.34,1.33c0,.14-.12.17-.44.14-2.69-.23-5.29-.37-7.49-.37-1,0-1.45.32-1.48,1.1-.06,1.24-.09,2.34-.09,3.5v2.49c0,.75.38.9,1,.9h.52a41.53,41.53,0,0,0,5.73-.24c.23,0,.35.12.23.38l-.46,1c-.15.32-.26.32-.64.29-1.1-.08-3.1-.2-5.12-.2h-.26c-.58,0-1,.14-1,.9v2.78c0,1.15,0,2.23.09,3.47.06.78.49,1.1,1.48,1.1,2.34,0,5.35-.17,8-.4.32,0,.47,0,.44.14l-.35,1.39c-.06.26-.06.35-.29.32C348.47,61.09,346.65,61.09,344.74,61.09Z"/></g></g></svg>